<svg width="14" height="13" viewBox="0 0 14 13" fill="none" xmlns="http://www.w3.org/2000/svg">
<path fill-rule="evenodd" clip-rule="evenodd" d="M11.4076 12.0737H2.0822C1.34616 12.0737 0.75 11.4776 0.75 10.7415V4.74662C0.75 4.01057 1.34616 3.41441 2.0822 3.41441H11.4076C12.1437 3.41441 12.7398 4.01057 12.7398 4.74662V10.7415C12.7398 11.4776 12.1437 12.0737 11.4076 12.0737Z" stroke="#3B58DB" stroke-width="1.5" stroke-linecap="round" stroke-linejoin="round"/>
<path d="M9.52546 3.4144V2.0822C9.52546 1.34616 8.9293 0.75 8.19325 0.75H5.29705C4.561 0.75 3.96484 1.34616 3.96484 2.0822V3.4144" stroke="#3B58DB" stroke-width="1.5" stroke-linecap="round" stroke-linejoin="round"/>
<path d="M9.41126 8.07832H3.08233C1.79422 8.07832 0.75 7.0341 0.75 5.74599" stroke="#3B58DB" stroke-width="1.5" stroke-linecap="round" stroke-linejoin="round"/>
<path d="M8.08008 8.0783H10.4124C11.7005 8.0783 12.7447 7.03408 12.7447 5.74597V5.74597" stroke="#3B58DB" stroke-width="1.5" stroke-linecap="round" stroke-linejoin="round"/>
</svg>
